#!OML:ASF F:\VICON\USERDATA\INSTALL\rory7\rory7.ASF
:FULLY-SPECIFIED
:DEGREES
35
root -0.00523958 18.8527 4.05054 -2.81176 -6.8502 1.06162
lowerback 6.11283 0.974856 -2.78916
upperback -0.0168518 1.06656 -0.913503
thorax -3.48 0.569612 0.526204
lowerneck -8.20772 -8.36018 -9.80852
upperneck 17.0999 -11.4307 7.6407
head 7.61689 -5.50185 2.98725
rclavicle 1.98577e-014 7.55382e-015
rhumerus -8.59182 5.27455 -72.4672
rradius 80.5651
rwrist -20.3049
rhand -45.5124 2.32237
rfingers 7.12502
rthumb -18.2767 -26.839
lclavicle 1.98577e-014 7.55382e-015
lhumerus -34.1129 13.426 73.2875
lradius 22.2698
lwrist -9.97174
lhand -22.0261 22.1877
lfingers 7.12502
lthumb 4.38355 52.1223
rfemur 0 0 0
rtibia 0
rfoot 0 0
rtoes 0
lfemur 7.08573 -6.94173 -19.7368
ltibia 8.19109
lfoot -12.2012 20.0909
ltoes -2.34989
36
root -0.00540251 18.8529 4.04966 -2.81253 -6.84652 1.12028
lowerback 6.1145 1.02642 -2.82944
upperback 0.0124297 1.13192 -0.942372
thorax -3.45287 0.601984 0.513313
lowerneck -8.2509 -8.36402 -9.81872
upperneck 17.1163 -11.4359 7.66503
head 7.63254 -5.50148 2.99431
rclavicle 1.3741e-014 1.59028e-015
rhumerus -7.89157 5.13584 -72.3675
rradius 79.8744
rwrist -20.4805
rhand -45.3541 2.21726
rfingers 7.12502
rthumb -18.1243 -26.9583
lclavicle 1.3741e-014 1.59028e-015
lhumerus -33.9531 13.3423 73.3475
lradius 22.2356
lwrist -9.9102
lhand -22.112 22.4081
lfingers 7.12502
lthumb 4.30066 52.3444
rfemur 0 0 0
rtibia 0
rfoot 0 0
rtoes 0
lfemur 7.1609 -6.93229 -19.8018
ltibia 8.04479
lfoot -12.1515 20.076
ltoes -2.22742
37
root -0.00468132 18.8537 4.04967 -2.78422 -6.82808 1.13835
lowerback 6.05056 1.08474 -2.79002
upperback 0.0660414 1.21434 -0.991948
thorax -3.36207 0.640554 0.434505
lowerneck -8.37721 -8.41308 -9.75119
upperneck 17.1738 -11.5035 7.64873
head 7.67509 -5.52661 2.96486
rclavicle 4.23815e-015 5.96354e-015
rhumerus -7.30586 4.92672 -72.2795
rradius 79.2992
rwrist -20.8272
rhand -45.2412 2.21957
rfingers 7.12502
rthumb -18.0158 -26.966
lclavicle 4.23815e-015 5.96354e-015
lhumerus -33.752 13.1557 73.427
lradius 22.2703
lwrist -9.79459
lhand -22.144 22.4267
lfingers 7.12502
lthumb 4.26971 52.3636
rfemur 0 0 0
rtibia 0
rfoot 0 0
rtoes 0
lfemur 7.14324 -6.94795 -19.8323
ltibia 8.02776
lfoot -12.1415 20.0932
ltoes -2.37538
38
root -0.00507758 18.8553 4.04352 -2.75305 -6.77183 1.0453
lowerback 6.09482 1.12244 -2.66398
upperback 0.0890406 1.27218 -0.995635
thorax -3.36186 0.667058 0.354345
lowerneck -8.49483 -8.46386 -9.67399
upperneck 17.2393 -11.5613 7.55557
head 7.71255 -5.55297 2.91015
rclavicle -1.0576e-014 9.93923e-015
rhumerus -6.7564 4.75857 -72.1941
rradius 78.7127
rwrist -21.276
rhand -45.3482 2.13123
rfingers 7.12502
rthumb -18.1187 -27.0449
lclavicle -1.0576e-014 9.93923e-015
lhumerus -33.6684 13.0109 73.4948
lradius 22.4464
lwrist -9.73479
lhand -22.0625 22.4956
lfingers 7.12502
lthumb 4.34845 52.4309
rfemur 0 0 0
rtibia 0
rfoot 0 0
rtoes 0
lfemur 7.07735 -7.01934 -19.7298
ltibia 8.05483
lfoot -12.1227 20.1415
ltoes -2.69787
39
root -0.00690354 18.8566 4.03614 -2.73975 -6.70656 0.960431
lowerback 6.17966 1.14374 -2.59538
upperback 0.122645 1.30368 -0.977878
thorax -3.37437 0.681589 0.330112
lowerneck -8.62307 -8.46231 -9.65775
upperneck 17.2741 -11.5513 7.55116
head 7.74462 -5.54341 2.90187
rclavicle 1.17811e-014 -6.36111e-015
rhumerus -6.18463 4.58719 -72.1137
rradius 78.1508
rwrist -21.6725
rhand -45.4005 2.08696
rfingers 7.12502
rthumb -18.169 -27.0845
lclavicle 1.17811e-014 -6.36111e-015
lhumerus -33.5452 12.8512 73.6005
lradius 22.562
lwrist -9.59995
lhand -22.0303 22.6596
lfingers 7.12502
lthumb 4.37948 52.5943
rfemur 0 0 0
rtibia 0
rfoot 0 0
rtoes 0
lfemur 7.01537 -7.09048 -19.6281
ltibia 8.10373
lfoot -12.107 20.1467
ltoes -2.72249
40
root -0.008325 18.8568 4.03066 -2.70518 -6.6222 0.996746
lowerback 6.20126 1.16262 -2.64018
upperback 0.175506 1.32463 -1.01642
thorax -3.33249 0.691622 0.313834
lowerneck -8.83361 -8.46701 -9.58045
upperneck 17.3286 -11.5574 7.5639
head 7.79655 -5.53383 2.88425
rclavicle -7.09723e-015 -7.15625e-015
rhumerus -5.59438 4.37371 -72.0814
rradius 77.6023
rwrist -22.0436
rhand -45.282 2.21433
rfingers 7.12502
rthumb -18.055 -26.9677
lclavicle -7.09723e-015 -7.15625e-015
lhumerus -33.3004 12.7136 73.6661
lradius 22.5136
lwrist -9.52249
lhand -22.0459 22.5288
lfingers 7.12502
lthumb 4.36447 52.4638
rfemur 0 0 0
rtibia 0
rfoot 0 0
rtoes 0
lfemur 6.89528 -7.1733 -19.658
ltibia 8.19639
lfoot -12.1177 20.1204
ltoes -2.53877
41
root -0.0113503 18.8578 4.02526 -2.61544 -6.69866 1.02169
lowerback 6.15504 1.25259 -2.69723
upperback 0.195986 1.44182 -1.03748
thorax -3.28933 0.750038 0.314688
lowerneck -9.02704 -8.52916 -9.48876
upperneck 17.3971 -11.6264 7.46603
head 7.84833 -5.56277 2.82102
rclavicle 3.15136e-014 7.55382e-015
rhumerus -5.05275 4.15963 -72.0287
rradius 77.0545
rwrist -22.4496
rhand -45.1443 2.17232
rfingers 7.12502
rthumb -17.9225 -27.0218
lclavicle 3.15136e-014 7.55382e-015
lhumerus -33.1092 12.6376 73.7281
lradius 22.4701
lwrist -9.58328
lhand -21.9887 22.4026
lfingers 7.12502
lthumb 4.41971 52.3365
rfemur 0 0 0
rtibia 0
rfoot 0 0
rtoes 0
lfemur 6.73189 -7.09597 -19.6596
ltibia 8.29133
lfoot -12.1768 20.0974
ltoes -2.70149
42
root -0.0160814 18.8602 4.01983 -2.49601 -6.86352 0.973125
lowerback 6.07205 1.36814 -2.71709
upperback 0.200763 1.59892 -0.996762
thorax -3.24368 0.828302 0.355639
lowerneck -9.1249 -8.57553 -9.52021
upperneck 17.3919 -11.6642 7.40858
head 7.86614 -5.58447 2.79836
rclavicle -1.66172e-014 -1.59028e-014
rhumerus -4.51429 3.95453 -71.9259
rradius 76.5087
rwrist -22.9478
rhand -44.9707 2.05643
rfingers 7.12502
rthumb -17.7555 -27.153
lclavicle -1.66172e-014 -1.59028e-014
lhumerus -33.0076 12.6382 73.8124
lradius 22.4879
lwrist -9.70245
lhand -21.9468 22.1964
lfingers 7.12502
lthumb 4.4601 52.1295
rfemur 0 0 0
rtibia 0
rfoot 0 0
rtoes 0
lfemur 6.5603 -6.93369 -19.5793
ltibia 8.39949
lfoot -12.2458 20.0966
ltoes -2.81722
